
<svg version="1.0" xmlns="http://www.w3.org/2000/svg"
 width="633.000000pt" height="490.000000pt" viewBox="0 0 633.000000 490.000000"
 preserveAspectRatio="xMidYMid meet">

<g transform="translate(0.000000,490.000000) scale(0.100000,-0.100000)"
fill="#000000" stroke="none">
<path d="M3025 4689 c-103 -15 -252 -68 -453 -160 -106 -49 -248 -110 -315
-135 -467 -178 -554 -222 -678 -344 -134 -133 -200 -251 -331 -600 -47 -124
-119 -297 -161 -386 -145 -311 -182 -435 -182 -619 0 -194 26 -282 191 -647
52 -114 117 -270 144 -347 211 -587 324 -704 895 -916 99 -37 254 -101 345
-142 416 -190 556 -227 765 -203 139 15 245 50 524 175 141 62 330 141 421
175 194 71 345 142 440 205 71 47 177 152 227 226 56 81 130 243 213 463 45
121 114 287 152 370 152 327 178 411 185 597 8 210 -20 321 -163 630 -87 189
-113 250 -191 459 -193 519 -324 652 -823 838 -206 76 -271 103 -466 192 -354
161 -525 200 -739 169z m-44 -1154 c28 -15 33 -15 73 4 51 25 93 27 144 6 73
-31 114 -89 114 -161 0 -37 4 -46 35 -70 71 -54 89 -147 42 -224 -18 -30 -22
-31 -36 -17 -14 14 -14 17 1 38 9 14 16 43 16 70 0 53 -29 98 -80 124 -25 13
-27 18 -23 58 10 84 -49 147 -139 147 -35 0 -54 -6 -76 -25 -37 -31 -49 -31
-79 -3 -35 32 -130 38 -176 10 -46 -29 -62 -64 -60 -128 3 -49 0 -55 -27 -74
-58 -41 -73 -98 -44 -169 14 -36 14 -42 -1 -72 -28 -53 -15 -106 36 -151 35
-32 41 -42 36 -67 -15 -73 42 -147 121 -158 38 -5 98 15 144 49 14 10 21 8 43
-15 25 -24 47 -32 115 -39 14 -2 25 -9 25 -18 0 -24 -88 -25 -136 -2 -39 19
-40 19 -76 1 -42 -21 -125 -25 -170 -8 -61 23 -113 99 -113 166 0 27 -6 42
-20 51 -11 6 -29 30 -41 53 -17 34 -20 52 -15 98 9 82 9 92 1 138 -11 62 2
109 41 152 26 30 34 47 34 77 1 76 47 142 121 174 32 13 132 4 170 -15z m207
-192 c-4 -21 -71 -55 -112 -57 -50 -2 -42 23 16 49 65 29 101 32 96 8z m-254
-73 c49 -21 63 -50 24 -50 -28 0 -128 46 -128 58 0 28 26 26 104 -8z m252
-101 c9 -16 -14 -35 -72 -58 -52 -20 -82 -15 -71 11 5 14 97 56 124 57 6 1 15
-4 19 -10z m-252 -79 c42 -18 58 -41 37 -54 -7 -5 -128 38 -140 50 -2 2 -1 11
3 20 7 18 28 15 100 -16z m651 -77 c175 -93 176 -292 2 -377 -28 -15 -83 -53
-122 -86 -93 -80 -110 -76 -92 21 l7 35 -52 17 c-29 9 -69 30 -90 47 -39 33
-78 102 -78 141 0 81 59 165 145 206 44 21 61 24 145 20 73 -2 104 -8 135 -24z
m-400 -37 c0 -13 -17 -25 -60 -42 -62 -26 -89 -25 -83 2 3 17 102 64 128 61 8
-1 15 -10 15 -21z m-269 -60 c56 -23 77 -46 55 -60 -14 -9 -141 44 -141 58 0
14 10 26 20 26 4 0 33 -11 66 -24z m-593 -818 c13 -16 17 -39 17 -113 0 -89
-1 -95 -26 -114 -29 -22 -77 -27 -118 -11 -33 12 -50 74 -43 158 5 64 17 88
52 103 31 13 98 0 118 -23z m-469 0 c20 -29 21 -117 1 -145 -9 -13 -31 -24
-55 -28 -38 -6 -40 -9 -40 -41 0 -30 -3 -34 -25 -34 l-25 0 0 135 0 135 64 0
c56 0 67 -3 80 -22z m210 9 c27 -20 33 -104 11 -150 -15 -32 -15 -38 -1 -65
17 -33 13 -42 -20 -42 -17 0 -25 9 -34 35 -6 19 -18 35 -26 35 -9 0 -14 -11
-14 -35 0 -31 -3 -35 -25 -35 l-25 0 0 135 0 135 58 0 c33 0 66 -6 76 -13z
m431 -44 c33 -118 30 -116 57 -28 23 77 26 80 56 83 l32 3 0 -135 0 -136 -25
0 c-24 0 -25 2 -26 73 l-1 72 -22 -70 c-17 -54 -26 -70 -41 -70 -14 0 -22 14
-36 60 l-17 60 -3 -60 c-4 -57 -5 -60 -31 -63 l-28 -3 0 135 0 136 34 0 c33 0
35 -2 51 -57z m369 35 c20 -29 21 -117 1 -145 -9 -13 -31 -24 -55 -28 -38 -6
-40 -9 -40 -41 0 -30 -3 -34 -25 -34 l-25 0 0 135 0 135 64 0 c56 0 67 -3 80
-22z m226 -3 c0 -21 -5 -25 -30 -25 l-30 0 0 -110 0 -110 -25 0 -25 0 0 110 0
110 -30 0 c-25 0 -30 4 -30 25 0 25 1 25 85 25 84 0 85 0 85 -25z m220 0 c0
-21 -5 -25 -30 -25 l-29 0 -3 -107 c-3 -108 -3 -108 -28 -108 -25 0 -25 0 -28
108 l-3 107 -29 0 c-25 0 -30 4 -30 25 0 25 1 25 90 25 89 0 90 0 90 -25z
m110 -25 l0 -50 35 0 35 0 0 50 c0 47 2 50 25 50 l25 0 0 -135 0 -135 -25 0
c-22 0 -24 4 -27 58 -3 56 -3 57 -35 60 l-33 3 0 -60 c0 -58 -1 -61 -25 -61
l-25 0 0 135 0 135 25 0 c23 0 25 -3 25 -50z m248 -82 c-3 -129 -4 -133 -25
-136 -23 -3 -23 -3 -23 132 l0 136 25 0 26 0 -3 -132z m160 70 l30 -63 1 63
c1 59 2 62 26 62 l25 0 0 -135 0 -135 -25 0 c-22 0 -30 9 -53 63 l-27 62 -5
-60 c-5 -56 -7 -60 -30 -60 l-25 0 -3 133 -3 132 30 0 c26 0 33 -7 59 -62z
m212 20 l0 -42 31 42 c24 33 37 42 60 42 33 0 33 -2 -9 -58 l-25 -33 32 -80
c17 -44 31 -84 31 -90 0 -5 -13 -9 -28 -9 -26 0 -30 5 -47 60 -10 33 -23 59
-29 57 -6 -2 -12 -29 -14 -60 -3 -53 -5 -57 -27 -57 l-25 0 0 135 0 135 25 0
c23 0 25 -4 25 -42z m330 17 c0 -23 -4 -25 -45 -25 -41 0 -45 -2 -45 -25 0
-22 4 -25 36 -25 33 0 35 -2 32 -27 -2 -23 -8 -29 -35 -31 -27 -3 -33 -8 -33
-27 0 -21 5 -24 43 -27 37 -3 42 -6 42 -28 0 -24 -2 -25 -70 -25 l-70 0 -3
133 -3 132 76 0 c73 0 75 -1 75 -25z m214 3 c21 -29 21 -117 1 -145 -14 -20
-14 -26 0 -59 19 -46 20 -44 -10 -44 -19 0 -29 9 -42 35 -9 19 -23 35 -30 35
-8 0 -13 -13 -13 -35 0 -31 -3 -35 -25 -35 l-25 0 0 135 0 135 64 0 c56 0 67
-3 80 -22z m-2516 -601 c3 -65 -8 -87 -44 -87 -23 0 -24 3 -24 76 l0 75 33 -3
c32 -3 32 -4 35 -61z m118 26 c9 -48 -6 -107 -29 -111 -33 -6 -47 17 -47 78 0
65 3 70 41 70 24 0 29 -5 35 -37z m76 -20 l23 -57 6 60 6 59 1 -77 c1 -43 0
-78 -2 -78 -3 0 -18 28 -33 63 l-28 62 -6 -65 -6 -65 -1 78 c-1 42 2 77 7 77
5 0 20 -26 33 -57z m90 35 c-7 -7 -12 -8 -12 -2 0 6 3 14 7 17 3 4 9 5 12 2 2
-3 -1 -11 -7 -17z m101 15 c-21 -4 -23 -10 -25 -76 l-2 -72 -3 72 c-3 57 -7
73 -21 76 -9 3 3 5 28 4 25 0 35 -2 23 -4z m126 -129 c-6 -8 -16 -14 -22 -14
-5 0 -3 8 6 18 11 12 18 39 19 78 l2 59 3 -63 c3 -39 -1 -69 -8 -78z m75 3
c25 -10 35 9 39 73 l3 65 2 -72 c2 -64 0 -72 -18 -78 -37 -12 -50 11 -48 84
l2 66 3 -67 c3 -42 9 -68 17 -71z m160 117 c4 -9 4 -19 1 -22 -2 -3 -7 3 -11
12 -7 19 -40 21 -47 3 -7 -17 1 -28 36 -50 29 -18 35 -45 15 -65 -16 -16 -33
-15 -52 4 -18 18 -21 34 -6 34 6 0 10 -6 10 -14 0 -23 20 -30 38 -13 12 13 13
19 3 31 -7 8 -21 18 -31 21 -22 7 -33 31 -25 56 8 24 60 26 69 3z m94 9 c-15
-4 -18 -16 -18 -69 0 -36 -4 -64 -10 -64 -6 0 -10 28 -10 64 0 53 -3 65 -17
69 -10 3 2 5 27 5 25 0 37 -2 28 -5z m160 0 c-15 -4 -18 -17 -20 -76 l-2 -72
-3 72 c-3 57 -7 73 -21 76 -9 3 1 5 23 5 22 0 32 -2 23 -5z m80 -61 c19 -3 22
1 22 32 0 20 5 36 10 36 6 0 10 -30 10 -70 0 -40 -4 -70 -10 -70 -5 0 -10 14
-10 30 0 25 -4 30 -24 30 -21 0 -25 -5 -29 -37 -2 -21 -4 -2 -4 42 0 50 2 67
6 45 4 -26 12 -36 29 -38z m92 -2 c0 -40 -4 -70 -10 -70 -6 0 -10 30 -10 70 0
40 4 70 10 70 6 0 10 -30 10 -70z m80 9 l25 -53 6 60 6 59 1 -78 c1 -45 -2
-76 -7 -73 -5 3 -20 32 -33 63 l-23 57 -6 -65 -6 -64 -1 78 c-1 43 2 76 6 73
4 -2 19 -28 32 -57z m115 29 c11 17 23 32 27 32 5 0 1 -12 -8 -26 -15 -22 -16
-30 -4 -62 22 -64 22 -68 -4 -22 -25 46 -30 44 -39 -10 -2 -14 -4 9 -4 50 0
51 2 64 6 40 l6 -35 20 33z m244 14 c16 -30 2 -62 -30 -69 -22 -4 -29 -12 -32
-37 -2 -17 -5 4 -5 47 l-2 77 30 0 c18 0 33 -7 39 -18z m111 -3 c9 -16 8 -26
-3 -43 -13 -19 -13 -25 0 -50 8 -15 13 -30 10 -32 -2 -3 -10 9 -17 26 -17 42
-47 40 -53 -2 -2 -18 -5 2 -5 45 l-2 77 30 0 c19 0 33 -7 40 -21z m118 -42 c3
-62 -8 -87 -39 -87 -24 0 -39 30 -39 79 0 60 8 73 44 69 30 -3 31 -4 34 -61z
m69 16 l19 -48 19 48 c10 26 22 47 26 47 5 0 8 -33 7 -72 l-1 -73 -7 55 -6 55
-18 -40 -18 -40 -19 35 -18 35 -1 -47 c0 -27 -4 -48 -10 -48 -6 0 -10 30 -10
70 0 39 4 70 9 70 5 0 17 -21 28 -47z m181 14 c4 -33 -13 -57 -39 -57 -12 0
-19 -9 -22 -27 -2 -16 -5 5 -6 45 l-1 73 33 -3 c27 -2 33 -8 35 -31z m90 26
c-15 -4 -18 -17 -20 -76 l-2 -72 -3 72 c-3 57 -7 73 -21 76 -9 3 1 5 23 5 22
0 32 -2 23 -5z m59 -75 c-2 -18 -4 -6 -4 27 0 33 2 48 4 33 2 -15 2 -42 0 -60z"/>
<path d="M3342 2982 c-88 -32 -132 -87 -132 -164 0 -78 66 -140 185 -175 27
-8 30 -13 27 -42 l-4 -34 54 45 c29 24 73 53 97 63 92 40 130 149 78 226 -57
85 -192 121 -305 81z"/>
<path d="M2222 2058 c-7 -7 -12 -39 -12 -75 0 -49 4 -64 18 -71 19 -10 43 -5
54 12 11 16 9 105 -2 127 -12 21 -40 25 -58 7z"/>
<path d="M1760 2024 c0 -41 2 -45 21 -42 12 2 27 11 32 20 15 23 -6 68 -33 68
-17 0 -20 -7 -20 -46z"/>
<path d="M2018 2093 c7 -3 16 -2 19 1 4 3 -2 6 -13 5 -11 0 -14 -3 -6 -6z"/>
<path d="M1980 2025 c0 -42 2 -46 23 -43 19 3 22 9 22 43 0 34 -3 40 -22 43
-21 3 -23 -1 -23 -43z"/>
<path d="M2808 2093 c7 -3 16 -2 19 1 4 3 -2 6 -13 5 -11 0 -14 -3 -6 -6z"/>
<path d="M2770 2025 c0 -42 2 -46 23 -43 19 3 22 9 22 43 0 34 -3 40 -22 43
-21 3 -23 -1 -23 -43z"/>
<path d="M4528 2093 c7 -3 16 -2 19 1 4 3 -2 6 -13 5 -11 0 -14 -3 -6 -6z"/>
<path d="M4490 2025 c0 -42 2 -46 23 -43 19 3 22 9 22 43 0 34 -3 40 -22 43
-21 3 -23 -1 -23 -43z"/>
<path d="M2010 1490 c0 -58 1 -61 23 -58 20 3 22 9 22 58 0 49 -2 55 -22 58
-22 3 -23 0 -23 -58z"/>
<path d="M2127 1543 c-13 -12 -8 -111 6 -116 28 -10 37 6 37 64 0 51 -3 59
-18 59 -10 0 -22 -3 -25 -7z"/>
<path d="M3620 1516 c0 -22 5 -36 13 -36 42 1 51 62 10 68 -20 3 -23 -1 -23
-32z"/>
<path d="M3730 1520 c0 -25 4 -30 24 -30 13 0 26 6 29 13 7 20 -12 47 -33 47
-16 0 -20 -7 -20 -30z"/>
<path d="M3846 1535 c-11 -31 -6 -92 9 -105 27 -23 46 6 43 64 -3 43 -6 51
-24 54 -13 2 -24 -4 -28 -13z"/>
<path d="M4100 1516 c0 -22 5 -36 13 -36 42 1 51 62 10 68 -20 3 -23 -1 -23
-32z"/>
</g>
</svg>
