
<svg version="1.0" xmlns="http://www.w3.org/2000/svg"
 width="300.000000pt" height="232.000000pt" viewBox="0 0 300.000000 232.000000"
 preserveAspectRatio="xMidYMid meet">
<metadata>
Created by potrace 1.10, written by Peter Selinger 2001-2011
</metadata>
<g transform="translate(0.000000,232.000000) scale(0.100000,-0.100000)"
fill="#000000" stroke="none">
<path d="M1342 2195 c-40 -14 -99 -38 -130 -54 -31 -15 -123 -54 -205 -85
-264 -103 -313 -153 -416 -421 -27 -71 -68 -170 -90 -219 -51 -108 -71 -182
-71 -261 0 -80 17 -139 80 -281 29 -66 70 -165 91 -222 49 -130 83 -194 135
-247 55 -57 109 -87 271 -150 76 -29 172 -69 213 -88 119 -56 195 -77 274 -77
91 0 121 9 296 85 80 34 189 79 243 100 211 80 269 144 372 409 24 61 67 165
96 231 49 111 53 127 57 212 5 114 -4 154 -73 308 -29 66 -73 169 -96 230 -93
240 -156 301 -414 395 -49 18 -132 53 -184 76 -195 91 -310 106 -449 59z m263
-21 c50 -15 123 -44 195 -77 30 -14 114 -49 185 -77 148 -58 217 -100 267
-162 44 -53 54 -74 111 -219 25 -64 55 -138 68 -165 94 -207 103 -236 97 -341
-3 -61 -12 -96 -40 -163 -20 -47 -69 -167 -110 -266 -43 -104 -91 -204 -112
-233 -53 -72 -136 -124 -289 -183 -73 -28 -150 -59 -171 -70 -83 -42 -221 -89
-276 -94 -79 -8 -151 9 -273 63 -56 24 -156 66 -222 92 -283 113 -305 137
-434 461 -27 69 -63 156 -81 193 -59 128 -73 223 -46 323 7 28 39 108 70 177
31 69 56 128 56 132 0 4 6 21 14 38 8 18 27 64 42 102 66 171 131 229 361 319
87 35 181 74 208 88 59 30 158 65 200 71 53 8 139 4 180 -9z"/>
<path d="M1284 1676 c-19 -19 -34 -41 -34 -50 0 -9 -9 -34 -20 -56 -33 -65
-28 -160 14 -252 44 -96 64 -106 198 -97 l93 7 31 -36 c26 -28 36 -34 57 -28
14 3 32 12 39 19 7 8 32 26 55 40 102 64 95 177 -13 230 -40 19 -49 28 -60 65
-6 23 -19 54 -28 67 -9 13 -16 31 -16 39 0 9 -16 31 -35 50 l-35 35 -106 0
-107 0 -33 -33z m146 3 c81 5 91 4 115 -19 14 -14 25 -35 25 -50 0 -15 11 -36
25 -50 29 -27 34 -80 10 -100 -22 -18 -28 -7 -14 23 10 22 9 31 -5 52 -9 14
-21 25 -26 25 -6 0 -10 14 -10 30 0 57 -69 92 -110 55 -15 -14 -18 -14 -30 0
-17 20 -69 19 -92 -2 -10 -9 -18 -29 -18 -45 0 -15 -9 -37 -19 -47 -27 -27
-25 -167 2 -182 9 -6 17 -22 17 -36 0 -53 61 -81 110 -51 15 10 22 10 32 0 6
-6 25 -12 40 -12 19 0 28 -5 28 -16 0 -13 -6 -15 -32 -10 -18 4 -44 7 -58 6
-14 0 -42 -2 -62 -2 -44 -2 -74 21 -84 66 -3 17 -13 39 -21 48 -10 11 -16 43
-18 93 -2 61 1 80 16 99 11 13 19 32 19 43 1 52 56 97 105 87 17 -4 41 -6 55
-5z m-12 -63 c32 -11 33 -12 15 -28 -16 -15 -25 -16 -58 -6 -51 15 -50 15 -35
33 15 18 33 18 78 1z m92 -34 c0 -9 -44 -32 -60 -32 -19 0 -10 21 13 30 29 11
47 12 47 2z m-125 -28 c24 -10 34 -19 28 -25 -13 -13 -73 9 -73 27 0 17 -1 17
45 -2z m164 -26 c21 -25 17 -49 -10 -74 -24 -22 -35 -13 -17 15 10 17 10 25 0
41 -26 42 -4 56 27 18z m-211 -9 c11 -18 11 -23 -4 -34 -17 -12 -17 -14 -2
-37 15 -22 15 -26 -2 -48 -17 -22 -18 -23 -27 -4 -14 25 -14 116 -1 132 14 17
21 15 36 -9z m177 -19 c5 -9 -50 -40 -70 -40 -17 0 0 28 23 37 36 14 40 15 47
3z m-124 -35 c39 -21 28 -39 -13 -22 -32 13 -50 37 -28 37 6 0 24 -7 41 -15z
m302 -36 c47 -25 67 -51 67 -91 0 -43 -15 -61 -103 -124 -57 -41 -71 -43 -63
-9 5 21 1 27 -28 39 -58 24 -83 86 -55 137 26 50 127 76 182 48z m-183 -19 c0
-10 -41 -30 -61 -30 -17 0 -9 17 14 28 29 14 47 15 47 2z m-111 -34 c16 -9 20
-15 12 -21 -14 -8 -71 13 -71 26 0 13 31 10 59 -5z m18 -37 c29 11 37 11 44 0
10 -18 -10 -30 -37 -23 -12 3 -25 1 -28 -5 -9 -13 -56 -15 -56 -2 0 5 -3 17
-6 26 -6 14 -3 14 20 4 21 -10 34 -10 63 0z"/>
<path d="M1573 1405 c-33 -14 -53 -41 -53 -73 0 -27 44 -68 80 -75 23 -5 28
-10 23 -24 -6 -17 -5 -17 15 0 11 10 35 27 54 36 64 35 61 108 -7 137 -42 17
-71 17 -112 -1z m122 -45 c19 -20 19 -20 -10 -51 -26 -26 -35 -30 -65 -25 -43
7 -73 42 -59 69 22 40 96 44 134 7z"/>
<path d="M806 1019 c-24 -19 -27 -27 -25 -81 2 -46 7 -62 22 -73 18 -12 24
-12 48 2 26 16 29 16 48 -1 15 -14 29 -17 58 -12 21 3 44 6 51 5 6 0 32 -1 57
-1 55 0 61 0 160 -2 76 -2 127 11 146 37 3 5 13 -3 22 -17 19 -29 40 -26 72 8
11 11 19 19 18 17 -1 -2 2 -12 8 -22 10 -20 54 -26 64 -9 5 8 11 7 21 -1 20
-16 588 -21 609 -5 10 7 16 32 18 68 2 65 -19 98 -63 98 -14 -1 -38 0 -55 0
-16 1 -39 1 -50 1 -24 0 -440 -1 -615 -1 -69 0 -168 -2 -220 -4 -52 -2 -103 1
-112 5 -11 6 -29 4 -50 -4 -28 -12 -38 -12 -66 0 -24 10 -38 11 -53 2 -15 -7
-29 -7 -51 0 -17 6 -32 11 -33 11 -1 0 -14 -9 -29 -21z m73 -23 c19 -23 9 -70
-16 -81 -12 -5 -24 -17 -26 -27 -3 -10 -10 -18 -16 -18 -7 0 -11 26 -11 70 l0
70 29 0 c16 0 34 -6 40 -14z m99 1 c11 -13 12 -127 1 -127 -4 0 -14 10 -22 23
l-16 22 0 -22 c-1 -14 -7 -23 -16 -23 -12 0 -15 14 -15 70 l0 70 29 0 c16 0
33 -6 39 -13z m120 1 c7 -7 12 -33 12 -60 0 -56 -25 -78 -66 -59 -20 9 -24 18
-24 59 0 52 12 72 45 72 12 0 26 -5 33 -12z m89 -30 l9 -43 13 43 c7 25 18 42
26 42 12 0 15 -15 15 -70 0 -72 -19 -102 -21 -32 l-1 37 -11 -32 c-18 -47 -25
-49 -36 -12 l-9 34 -1 -32 c-1 -22 -6 -33 -16 -33 -12 0 -15 14 -15 70 0 62 2
70 19 70 13 0 21 -11 28 -42z m175 17 c14 -32 -3 -75 -31 -75 -11 0 -18 -6
-17 -16 0 -9 -5 -19 -11 -21 -10 -4 -13 14 -13 66 l0 71 30 0 c23 0 33 -6 42
-25z m108 10 c0 -8 -7 -15 -15 -15 -12 0 -15 -13 -15 -55 0 -42 -3 -55 -15
-55 -12 0 -15 13 -15 55 0 42 -3 55 -15 55 -8 0 -15 7 -15 15 0 11 12 15 45
15 33 0 45 -4 45 -15z m100 0 c0 -8 -7 -15 -15 -15 -12 0 -15 -13 -15 -55 0
-42 -3 -55 -15 -55 -12 0 -15 13 -15 55 0 42 -3 55 -15 55 -8 0 -15 7 -15 15
0 11 12 15 45 15 33 0 45 -4 45 -15z m50 -10 c0 -16 6 -25 15 -25 9 0 15 9 15
25 0 16 6 25 15 25 12 0 15 -14 15 -70 0 -56 -3 -70 -15 -70 -10 0 -15 10 -15
30 0 20 -5 30 -15 30 -10 0 -15 -10 -15 -31 0 -20 -4 -29 -12 -27 -8 3 -14 29
-16 71 -2 55 0 67 13 67 9 0 15 -9 15 -25z m120 -45 c0 -56 -3 -70 -15 -70
-12 0 -15 14 -15 70 0 56 3 70 15 70 12 0 15 -14 15 -70z m74 38 l14 -33 1 33
c1 19 6 32 14 32 9 0 12 -18 11 -67 -2 -76 -16 -91 -38 -41 l-14 33 -1 -33
c-1 -22 -5 -32 -13 -30 -8 3 -14 29 -16 71 -2 55 0 67 13 67 8 0 21 -15 29
-32z m103 10 l-6 -23 19 23 c31 37 54 27 25 -12 -12 -16 -12 -23 5 -57 14 -27
17 -40 8 -45 -12 -8 -38 22 -38 45 0 8 -3 11 -7 7 -4 -4 -8 -17 -8 -28 0 -12
-6 -23 -12 -25 -10 -4 -13 14 -13 66 0 59 3 71 16 71 12 0 15 -6 11 -22z m153
7 c0 -8 -9 -15 -20 -15 -11 0 -20 -4 -20 -10 0 -5 7 -10 15 -10 8 0 15 -7 15
-15 0 -8 -7 -15 -15 -15 -8 0 -15 -7 -15 -15 0 -8 9 -15 20 -15 11 0 20 -6 20
-14 0 -10 -11 -14 -35 -13 l-35 1 0 68 0 68 35 0 c24 0 35 -5 35 -15z m99 2
c11 -14 12 -127 0 -127 -3 0 -14 10 -22 23 l-16 22 0 -22 c-1 -14 -7 -23 -16
-23 -12 0 -15 14 -15 70 l0 70 29 0 c16 0 33 -6 40 -13z"/>
<path d="M1052 943 c4 -52 28 -56 28 -4 0 30 -4 41 -16 41 -11 0 -14 -9 -12
-37z"/>
<path d="M1310 961 c0 -12 6 -21 16 -21 9 0 14 7 12 17 -5 25 -28 28 -28 4z"/>
<path d="M939 744 c-6 -7 -9 -28 -6 -46 4 -33 4 -33 5 5 2 34 5 38 25 35 31
-4 36 -51 7 -71 -21 -14 -20 -15 22 -12 23 2 46 4 51 4 4 1 7 19 7 41 0 40 15
55 23 23 4 -17 5 -17 6 0 0 9 5 17 11 17 7 0 7 -42 0 -80 0 -3 -7 6 -15 20
-14 24 -14 24 -15 3 0 -35 21 -39 46 -8 20 25 22 26 27 9 3 -12 5 -8 6 11 1
44 -8 51 -69 54 -34 1 -50 -2 -42 -7 19 -13 12 -77 -8 -77 -11 0 -15 11 -15
45 1 43 0 45 -28 45 -15 1 -33 -5 -38 -11z"/>
<path d="M1299 752 c-11 -2 -14 -12 -11 -35 4 -35 -18 -65 -38 -52 -13 8 -13
75 0 75 5 0 7 -13 4 -30 -4 -20 -2 -30 5 -30 19 0 9 64 -10 68 -13 2 -18 -7
-21 -43 -4 -50 0 -52 66 -53 20 0 25 3 17 11 -17 17 -13 27 7 21 15 -5 15 -4
-1 9 -10 9 -17 24 -15 34 3 14 11 17 43 15 22 -2 37 0 33 4 -8 7 -53 11 -79 6z"/>
<path d="M1430 748 c0 -5 6 -8 13 -8 9 0 11 -12 9 -40 -3 -25 0 -40 7 -40 6 0
12 19 12 43 1 23 3 34 6 25 5 -22 23 -24 23 -3 0 8 9 15 19 15 16 0 20 -8 23
-42 3 -39 5 -42 36 -43 17 -1 32 3 32 8 0 5 -6 7 -14 4 -16 -7 -27 23 -19 54
4 16 12 20 29 16 13 -2 24 0 24 4 0 5 -19 9 -42 9 -24 1 -69 2 -100 3 -32 1
-58 -1 -58 -5z m134 -45 c-9 -52 -14 -54 -14 -5 0 23 5 42 10 42 7 0 8 -14 4
-37z"/>
<path d="M1710 748 c-14 -5 -20 -16 -20 -38 0 -16 5 -30 10 -30 6 0 10 14 10
30 0 23 4 30 20 30 24 0 28 -38 5 -46 -23 -9 -19 -33 5 -27 15 4 20 14 20 39
0 28 4 34 21 34 15 0 20 -6 19 -22 -4 -42 0 -56 16 -62 22 -8 56 3 48 15 -3 6
-11 5 -21 -2 -12 -10 -16 -10 -24 2 -12 20 -11 53 3 67 9 9 8 12 -7 13 -11 1
-34 2 -52 3 -18 1 -41 -2 -53 -6z"/>
<path d="M1840 750 c0 -4 4 -10 9 -15 5 -6 12 -19 15 -30 3 -12 4 -9 2 8 -4
30 8 36 22 11 8 -14 10 -14 17 2 7 15 10 9 15 -26 l7 -45 1 42 2 41 43 0 c43
0 43 0 39 -33 -2 -18 1 -36 7 -39 7 -5 11 7 11 33 0 48 19 56 21 9 2 -32 2
-33 6 -4 3 16 0 33 -7 40 -11 11 -210 16 -210 6z"/>
<path d="M1200 704 c0 -21 4 -33 10 -29 6 3 10 19 10 36 0 16 -4 29 -10 29 -5
0 -10 -16 -10 -36z"/>
<path d="M1383 733 c-7 -2 -13 -18 -13 -34 0 -38 16 -30 22 11 3 16 4 30 4 29
-1 0 -7 -3 -13 -6z"/>
<path d="M1641 726 c-9 -11 -10 -20 -1 -36 15 -27 30 -17 24 17 -7 35 -9 37
-23 19z"/>
<path d="M1310 722 c0 -5 7 -13 16 -16 10 -4 14 -14 11 -26 -3 -13 0 -20 9
-20 9 0 14 12 14 35 0 19 -4 35 -10 35 -5 0 -10 -5 -10 -11 0 -8 -5 -8 -15 1
-9 7 -15 8 -15 2z"/>
<path d="M1975 710 c-3 -11 -11 -20 -16 -20 -5 0 -9 -3 -9 -7 0 -5 11 -8 25
-8 21 0 25 5 25 28 0 31 -16 36 -25 7z"/>
</g>
</svg>
